<svg xmlns="http://www.w3.org/2000/svg" width="32" height="32" viewBox="0 0 32 32">
  <defs>
    <clipPath id="flag-es">
      <rect x="1" y="4" width="30" height="24" rx="4" ry="4"/>
    </clipPath>
  </defs>

  <g clip-path="url(#flag-es)">
    <rect x="1" y="4" width="30" height="24" fill="#aa151b"/>
    <rect x="1" y="12" width="30" height="8" fill="#f1bf00"/>
  </g>

  <path d="M27 4H5c-2.2 0-4 1.8-4 4v16c0 2.2 1.8 4 4 4h22c2.2 0 4-1.8 4-4V8c0-2.2-1.8-4-4-4Z"
    opacity=".15"/>
  <path d="M27 5H5c-1.7 0-3 1.3-3 3v1c0-1.7 1.3-3 3-3h22c1.7 0 3 1.3 3 3V8c0-1.7-1.3-3-3-3Z"
    fill="#fff" opacity=".2"/>
</svg>
