<svg xmlns="http://www.w3.org/2000/svg" width="32" height="32" viewBox="0 0 32 32">
  <defs>
    <clipPath id="flag-us">
      <rect x="1" y="4" width="30" height="24" rx="4" ry="4" />
    </clipPath>

    <marker id="us-a" markerHeight="30" markerWidth="30">
      <path fill="#fff" d="m14 0 9 27L0 10h28L5 27z" />
    </marker>
  </defs>

  <g clip-path="url(#flag-us)">
    <g transform="translate(1,4) scale(0.046875, 0.05)">
      <path fill="#bd3d44" d="M0 0h640v480H0" />
      <path stroke="#fff" stroke-width="37"
        d="M0 55.3h640M0 129h640M0 203h640M0 277h640M0 351h640M0 425h640" />
      <path fill="#192f5d" d="M0 0h364.8v258.5H0" />
      <path fill="none" marker-mid="url(#us-a)"
        d="m0 0 16 11h61 61 61 61 60
           L47 37h61 61 60 61
           L16 63h61 61 61 61 60
           L47 89h61 61 60 61
           L16 115h61 61 61 61 60
           L47 141h61 61 60 61
           L16 166h61 61 61 61 60
           L47 192h61 61 60 61
           L16 218h61 61 61 61 60z" />
    </g>
  </g>

  <path
    d="M27 4H5c-2.2 0-4 1.8-4 4v16c0 2.2 1.8 4 4 4h22c2.2 0 4-1.8 4-4V8c0-2.2-1.8-4-4-4Z"
    opacity=".15" />

  <path
    d="M27 5H5c-1.7 0-3 1.3-3 3v1c0-1.7 1.3-3 3-3h22c1.7 0 3 1.3 3 3V8c0-1.7-1.3-3-3-3Z"
    fill="#fff"
    opacity=".2" />
</svg>
