<svg xmlns="http://www.w3.org/2000/svg" width="1440" height="1024" fill="none"><path fill="url(#a)" fill-rule="evenodd" d="M-180.42 520.15c68.25-95.33 198.74-85.62 305.88-115.28 106.35-29.43 225.67-148.52 332.45-95.21 116.42 58.12 92.18 238.94 162.33 349.87 45.92 72.58 118.45 115.73 172.85 178.42 80.82 93.15 212.38 165.27 221.67 289.55 9.13 122.03-62.85 281.74-177.26 319.48-134.52 44.38-268.13-180.25-402.88-132.67-144.65 51.08-98.27 346.62-248.73 353.82-126.32 6.05-147.88-216.45-192.45-339.26-31.38-86.45 29.82-184.52-8.75-268.94-46.82-102.48-201.85-122.38-233.58-229.67-33.52-113.35-19.78-251.88 68.47-310.11Z" clip-rule="evenodd" style="opacity:.154"/><path fill="url(#b)" fill-rule="evenodd" d="M1088.25 158.67c141.82-38.92 298.45-129.38 428.73-58.24 177.28 96.82 362.15 268.33 330.88 465.42-31.27 197.09-289.67 233.55-465.33 337.28-146.67 86.55-288.45 256.73-444.92 202.15-154.88-54.03-122.67-288.45-223.45-421.33-111.23-146.67-413.88-168.92-397.67-355.67 15.97-183.88 273.33-212.45 453.67-257.78 109.67-27.56 201.23 49.33 318.09 88.17Z" clip-rule="evenodd" style="opacity:.154"/><defs><linearGradient id="b" x1="373" x2="1995.44" y1="1100" y2="118.03" gradientUnits="userSpaceOnUse"><stop stop-color="#D83333"/><stop offset="1" stop-color="#F041FF"/></linearGradient><linearGradient id="a" x1="107.37" x2="1130.66" y1="1993.35" y2="1026.31" gradientUnits="userSpaceOnUse"><stop stop-color="#3245FF"/><stop offset="1" stop-color="#BC52EE"/></linearGradient></defs></svg>
